<svg width="25" height="25" viewBox="0 0 25 25" fill="none" xmlns="http://www.w3.org/2000/svg">
<g clip-path="url(#clip0_337_125)">
<path d="M18.9286 10.6429L17.6657 18.2237C17.6296 18.4407 17.5177 18.6378 17.3499 18.78C17.182 18.9222 16.9692 19.0001 16.7492 19H8.10793C7.88813 18.9999 7.6755 18.9218 7.50785 18.7797C7.3402 18.6375 7.22841 18.4405 7.19236 18.2237L5.92858 10.6429M18.9286 10.6429H16.1429M18.9286 10.6429H19.8571M5.92858 10.6429H8.71429M5.92858 10.6429H5M16.1429 10.6429L15.2143 6M16.1429 10.6429H8.71429M8.71429 10.6429L9.64286 6M15.2143 14.3571V15.2857M9.64286 14.3571V15.2857M12.4286 14.3571V15.2857" stroke="white" stroke-linecap="round" stroke-linejoin="round"/>
<path d="M25.25 4.71429H21.7143V8.25H20.5357V4.71429H17V3.53571H20.5357V0H21.7143V3.53571H25.25V4.71429Z" fill="white"/>
</g>
<defs>
<clipPath id="clip0_337_125">
<rect width="25" height="25" fill="white"/>
</clipPath>
</defs>
</svg>
