<?xml version="1.0" encoding="UTF-8"?><svg id="a" xmlns="http://www.w3.org/2000/svg" width="800" height="210.651" viewBox="0 0 800 210.651"><path d="M0,210.323v-24.547h8.48c1.471,0,2.784.292,3.939.875,1.155.584,2.063,1.425,2.726,2.526.662,1.101.994,2.423.994,3.967,0,1.484-.332,2.747-.994,3.793-.663,1.046-1.572,1.845-2.726,2.398-1.155.554-2.469.83-3.939.83H2.353v10.158H0ZM2.353,198.14h5.982c1.629,0,2.945-.41,3.948-1.231s1.505-2.076,1.505-3.766c0-1.835-.502-3.191-1.505-4.067s-2.319-1.313-3.948-1.313H2.353v10.377Z"/><path d="M20.407,210.323v-17.745h1.988l.109,2.991c.522-.839,1.219-1.584,2.088-2.234.869-.65,2.039-.976,3.511-.976h.365v2.17h-.401c-.973,0-1.796.139-2.471.419s-1.249.647-1.723,1.103-.906.946-1.295,1.468v12.802h-2.17Z"/><path d="M38.553,210.615c-1.703,0-3.143-.371-4.322-1.112-1.18-.741-2.073-1.796-2.681-3.164-.608-1.368-.912-2.988-.912-4.86,0-1.908.304-3.556.912-4.942.608-1.386,1.501-2.453,2.681-3.201,1.179-.748,2.62-1.122,4.322-1.122,1.762,0,3.249.374,4.459,1.122,1.21.748,2.13,1.815,2.763,3.201.632,1.386.948,3.034.948,4.942,0,1.872-.317,3.492-.948,4.86-.632,1.368-1.553,2.423-2.763,3.164-1.21.741-2.696,1.112-4.459,1.112ZM38.553,208.827c1.447,0,2.601-.313,3.465-.939.863-.627,1.489-1.493,1.878-2.599.389-1.106.584-2.377.584-3.812,0-1.459-.195-2.751-.584-3.875-.389-1.124-1.015-2.006-1.878-2.644-.864-.638-2.018-.957-3.465-.957-1.386,0-2.493.319-3.319.957-.827.638-1.426,1.52-1.796,2.644-.371,1.124-.556,2.416-.556,3.875,0,1.434.185,2.706.556,3.812.371,1.106.969,1.972,1.796,2.599.827.627,1.933.939,3.319.939Z"/><path d="M52.45,210.323v-15.903h-2.991v-1.842h2.991v-1.258c0-.814.061-1.562.182-2.243.121-.681.343-1.267.666-1.76.322-.492.778-.873,1.368-1.14.589-.267,1.359-.401,2.307-.401h1.897v1.842h-1.678c-1.155,0-1.882.331-2.179.994-.298.663-.447,1.589-.447,2.781v1.185h4.304v1.842h-4.304v15.903h-2.115Z"/><path d="M68.918,210.651c-1.897,0-3.435-.422-4.614-1.267-1.18-.845-2.043-1.963-2.59-3.356s-.821-2.909-.821-4.55c0-1.776.264-3.356.793-4.742s1.355-2.48,2.48-3.283c1.124-.802,2.581-1.204,4.368-1.204,2.298,0,4.094.709,5.389,2.125s1.942,3.456,1.942,6.119c0,.207-.007.435-.018.684-.012.249-.031.422-.055.52h-12.748c0,1.301.197,2.496.593,3.584.395,1.088,1.024,1.958,1.888,2.608.863.65,1.994.976,3.392.976,1.52,0,2.699-.362,3.538-1.085s1.277-1.766,1.313-3.128h2.134c-.025,1.179-.317,2.218-.875,3.119-.559.9-1.356,1.605-2.389,2.115-1.034.511-2.274.766-3.72.766ZM63.045,199.873h10.687c-.036-1.848-.499-3.276-1.386-4.286-.888-1.01-2.158-1.514-3.812-1.514-1.678,0-2.97.495-3.875,1.486-.906.991-1.444,2.428-1.614,4.313Z"/><path d="M86.754,210.651c-1.01,0-1.946-.119-2.809-.356-.864-.237-1.614-.602-2.252-1.094s-1.134-1.124-1.486-1.897c-.353-.772-.529-1.693-.529-2.763h2.17c0,1.58.468,2.696,1.404,3.346.936.65,2.14.976,3.611.976,1.264,0,2.331-.258,3.201-.775.869-.517,1.304-1.365,1.304-2.544,0-.973-.356-1.696-1.067-2.17s-1.973-.924-3.784-1.35c-1.447-.353-2.633-.741-3.556-1.167-.924-.426-1.602-.955-2.033-1.587-.432-.632-.647-1.416-.647-2.353,0-.718.146-1.365.438-1.942s.711-1.069,1.258-1.477,1.206-.718,1.979-.93c.772-.212,1.638-.319,2.599-.319.936,0,1.802.119,2.599.356.796.237,1.489.595,2.079,1.076.589.481,1.049,1.085,1.377,1.815s.492,1.587.492,2.571h-2.17c0-1.434-.423-2.459-1.267-3.073-.845-.614-1.882-.921-3.109-.921s-2.231.234-3.009.702c-.778.468-1.167,1.183-1.167,2.143,0,.547.152,1.003.456,1.368.304.365.823.69,1.559.976.735.285,1.742.586,3.018.903,1.422.34,2.581.732,3.474,1.176s1.547,1.003,1.96,1.678c.413.675.62,1.529.62,2.562,0,.851-.162,1.596-.483,2.234-.322.638-.782,1.167-1.377,1.587-.596.419-1.304.732-2.125.939s-1.73.31-2.726.31Z"/><path d="M103.787,210.651c-1.01,0-1.946-.119-2.809-.356-.864-.237-1.614-.602-2.252-1.094s-1.134-1.124-1.486-1.897c-.353-.772-.529-1.693-.529-2.763h2.17c0,1.58.468,2.696,1.404,3.346.936.65,2.14.976,3.611.976,1.264,0,2.331-.258,3.201-.775.869-.517,1.304-1.365,1.304-2.544,0-.973-.356-1.696-1.067-2.17s-1.973-.924-3.784-1.35c-1.447-.353-2.633-.741-3.556-1.167-.924-.426-1.602-.955-2.033-1.587-.432-.632-.647-1.416-.647-2.353,0-.718.146-1.365.438-1.942s.711-1.069,1.258-1.477,1.206-.718,1.979-.93c.772-.212,1.638-.319,2.599-.319.936,0,1.802.119,2.599.356.796.237,1.489.595,2.079,1.076.589.481,1.049,1.085,1.377,1.815s.492,1.587.492,2.571h-2.17c0-1.434-.423-2.459-1.267-3.073-.845-.614-1.882-.921-3.109-.921s-2.231.234-3.009.702c-.778.468-1.167,1.183-1.167,2.143,0,.547.152,1.003.456,1.368.304.365.823.69,1.559.976.735.285,1.742.586,3.018.903,1.422.34,2.581.732,3.474,1.176s1.547,1.003,1.96,1.678c.413.675.62,1.529.62,2.562,0,.851-.162,1.596-.483,2.234-.322.638-.782,1.167-1.377,1.587-.596.419-1.304.732-2.125.939s-1.73.31-2.726.31Z"/><path d="M116.589,188.73c-.426,0-.782-.137-1.067-.41-.286-.274-.429-.623-.429-1.049s.143-.782.429-1.067c.285-.285.641-.429,1.067-.429.413,0,.766.143,1.058.429s.438.641.438,1.067-.146.775-.438,1.049-.645.41-1.058.41ZM115.513,210.323v-17.745h2.17v17.745h-2.17Z"/><path d="M130.76,210.615c-1.703,0-3.143-.371-4.322-1.112-1.18-.741-2.073-1.796-2.681-3.164-.608-1.368-.912-2.988-.912-4.86,0-1.908.304-3.556.912-4.942.608-1.386,1.501-2.453,2.681-3.201,1.179-.748,2.62-1.122,4.322-1.122,1.762,0,3.249.374,4.459,1.122,1.21.748,2.13,1.815,2.763,3.201.632,1.386.948,3.034.948,4.942,0,1.872-.317,3.492-.948,4.86-.632,1.368-1.553,2.423-2.763,3.164-1.21.741-2.696,1.112-4.459,1.112ZM130.76,208.827c1.447,0,2.601-.313,3.465-.939.863-.627,1.489-1.493,1.878-2.599.389-1.106.584-2.377.584-3.812,0-1.459-.195-2.751-.584-3.875-.389-1.124-1.015-2.006-1.878-2.644-.864-.638-2.018-.957-3.465-.957-1.386,0-2.493.319-3.319.957-.827.638-1.426,1.52-1.796,2.644-.371,1.124-.556,2.416-.556,3.875,0,1.434.185,2.706.556,3.812.371,1.106.969,1.972,1.796,2.599.827.627,1.933.939,3.319.939Z"/><path d="M144.091,210.323v-17.745h2.061l.109,2.772c.535-.693,1.325-1.37,2.371-2.033,1.045-.663,2.371-.994,3.976-.994,2.018,0,3.444.586,4.277,1.76s1.249,2.788,1.249,4.842v11.398h-2.17v-11.052c0-.973-.091-1.839-.274-2.599s-.529-1.359-1.04-1.796-1.265-.657-2.261-.657c-1.508,0-2.766.34-3.775,1.021-1.01.681-1.794,1.398-2.353,2.152v12.93h-2.17Z"/><path d="M168.601,210.651c-1.033,0-1.963-.191-2.79-.574s-1.484-.948-1.97-1.696-.729-1.669-.729-2.763c0-1.568.502-2.763,1.505-3.584s2.428-1.383,4.277-1.687,4.024-.462,6.529-.474v-1.386c0-1.69-.429-2.854-1.286-3.492s-1.931-.957-3.219-.957c-1.361,0-2.519.349-3.474,1.049s-1.432,1.796-1.432,3.292h-2.152c0-1.422.304-2.587.912-3.492s1.443-1.571,2.508-1.997,2.277-.638,3.638-.638c.791,0,1.578.082,2.362.246s1.502.468,2.152.912,1.174,1.073,1.568,1.888.593,1.878.593,3.191v11.836h-2.006l-.109-2.881c-.851.924-1.835,1.69-2.954,2.298s-2.426.912-3.921.912ZM169.003,208.827c1.374,0,2.599-.31,3.675-.93s1.99-1.441,2.745-2.462v-3.957c-3.586.036-6.176.367-7.769.994-1.593.627-2.389,1.65-2.389,3.073,0,.96.307,1.748.921,2.362s1.553.921,2.818.921Z"/><path d="M187.951,210.323c-1.265,0-2.225-.234-2.881-.702s-1.101-1.119-1.331-1.951-.347-1.79-.347-2.872v-19.021h2.152v18.948c0,1.192.149,2.118.447,2.781s1.024.994,2.179.994h.675v1.824h-.894Z"/><path d="M200.498,210.323v-24.547h8.48c1.471,0,2.784.292,3.939.875s2.063,1.425,2.726,2.526c.663,1.101.994,2.423.994,3.967,0,1.484-.331,2.747-.994,3.793s-1.571,1.845-2.726,2.398-2.469.83-3.939.83h-6.128v10.158h-2.353ZM202.851,198.14h5.982c1.63,0,2.945-.41,3.948-1.231s1.505-2.076,1.505-3.766c0-1.835-.502-3.191-1.505-4.067s-2.319-1.313-3.948-1.313h-5.982v10.377Z"/><path d="M220.905,210.323v-17.745h1.988l.109,2.991c.522-.839,1.219-1.584,2.088-2.234s2.04-.976,3.511-.976h.365v2.17h-.401c-.973,0-1.796.139-2.471.419s-1.249.647-1.723,1.103-.905.946-1.295,1.468v12.802h-2.17Z"/><path d="M239.051,210.615c-1.703,0-3.143-.371-4.322-1.112s-2.073-1.796-2.681-3.164-.912-2.988-.912-4.86c0-1.908.304-3.556.912-4.942s1.502-2.453,2.681-3.201,2.62-1.122,4.322-1.122c1.762,0,3.249.374,4.459,1.122s2.131,1.815,2.763,3.201.948,3.034.948,4.942c0,1.872-.317,3.492-.948,4.86s-1.553,2.423-2.763,3.164-2.696,1.112-4.459,1.112ZM239.051,208.827c1.447,0,2.601-.313,3.465-.939s1.489-1.493,1.878-2.599.584-2.377.584-3.812c0-1.459-.194-2.751-.584-3.875s-1.015-2.006-1.878-2.644-2.018-.957-3.465-.957c-1.386,0-2.492.319-3.319.957s-1.425,1.52-1.796,2.644-.556,2.416-.556,3.875c0,1.434.185,2.706.556,3.812s.969,1.972,1.796,2.599,1.933.939,3.319.939Z"/><path d="M257.47,210.323c-1.252,0-2.204-.234-2.854-.702s-1.092-1.119-1.322-1.951-.347-1.79-.347-2.872v-10.377h-2.991v-1.842h2.991v-3.994h2.115v3.994h4.632v1.842h-4.632v10.304c0,1.192.149,2.118.447,2.781s1.024.994,2.179.994h2.043v1.824h-2.261Z"/><path d="M270.656,210.651c-1.897,0-3.435-.422-4.614-1.267s-2.043-1.963-2.59-3.356-.821-2.909-.821-4.55c0-1.776.264-3.356.793-4.742s1.356-2.48,2.48-3.283,2.581-1.204,4.368-1.204c2.298,0,4.094.709,5.389,2.125s1.942,3.456,1.942,6.119c0,.207-.007.435-.018.684s-.03.422-.055.52h-12.748c0,1.301.198,2.496.593,3.584s1.024,1.958,1.888,2.608,1.994.976,3.392.976c1.52,0,2.699-.362,3.538-1.085s1.277-1.766,1.313-3.128h2.134c-.025,1.179-.317,2.218-.875,3.119s-1.356,1.605-2.389,2.115-2.273.766-3.72.766ZM264.784,199.873h10.687c-.036-1.848-.499-3.276-1.386-4.286s-2.158-1.514-3.812-1.514c-1.678,0-2.97.495-3.875,1.486s-1.443,2.428-1.614,4.313Z"/><path d="M289.641,210.651c-1.58,0-2.961-.347-4.14-1.04s-2.097-1.723-2.754-3.091-.985-3.048-.985-5.043c0-2.006.328-3.696.985-5.07s1.575-2.41,2.754-3.109,2.56-1.049,4.14-1.049c1.313,0,2.489.212,3.529.638s1.872,1.069,2.498,1.933.969,1.958,1.03,3.283h-2.17c-.109-1.265-.584-2.252-1.422-2.964s-1.97-1.067-3.392-1.067c-1.885,0-3.307.65-4.267,1.951-.96,1.301-1.441,3.119-1.441,5.453,0,1.557.212,2.881.638,3.976s1.064,1.931,1.915,2.508,1.903.866,3.155.866c1.422,0,2.587-.356,3.492-1.067s1.383-1.772,1.432-3.182h2.17c-.036,1.374-.376,2.51-1.021,3.41s-1.502,1.568-2.571,2.006-2.261.657-3.574.657Z"/><path d="M307.057,210.323c-1.252,0-2.204-.234-2.854-.702s-1.092-1.119-1.322-1.951-.347-1.79-.347-2.872v-10.377h-2.991v-1.842h2.991v-3.994h2.115v3.994h4.632v1.842h-4.632v10.304c0,1.192.149,2.118.447,2.781s1.024.994,2.179.994h2.043v1.824h-2.261Z"/><path d="M314.516,188.73c-.426,0-.782-.137-1.067-.41s-.429-.623-.429-1.049.143-.782.429-1.067.641-.429,1.067-.429c.413,0,.766.143,1.058.429s.438.641.438,1.067-.146.775-.438,1.049-.645.41-1.058.41ZM313.44,210.323v-17.745h2.17v17.745h-2.17Z"/><path d="M328.686,210.615c-1.703,0-3.143-.371-4.322-1.112s-2.073-1.796-2.681-3.164-.912-2.988-.912-4.86c0-1.908.304-3.556.912-4.942s1.502-2.453,2.681-3.201,2.62-1.122,4.322-1.122c1.762,0,3.249.374,4.459,1.122s2.131,1.815,2.763,3.201.948,3.034.948,4.942c0,1.872-.317,3.492-.948,4.86s-1.553,2.423-2.763,3.164-2.696,1.112-4.459,1.112ZM328.686,208.827c1.447,0,2.601-.313,3.465-.939s1.489-1.493,1.878-2.599.584-2.377.584-3.812c0-1.459-.194-2.751-.584-3.875s-1.015-2.006-1.878-2.644-2.018-.957-3.465-.957c-1.386,0-2.492.319-3.319.957s-1.425,1.52-1.796,2.644-.556,2.416-.556,3.875c0,1.434.185,2.706.556,3.812s.969,1.972,1.796,2.599,1.933.939,3.319.939Z"/><path d="M342.017,210.323v-17.745h2.061l.109,2.772c.535-.693,1.325-1.37,2.371-2.033s2.371-.994,3.976-.994c2.018,0,3.444.586,4.277,1.76s1.249,2.788,1.249,4.842v11.398h-2.17v-11.052c0-.973-.091-1.839-.274-2.599s-.529-1.359-1.04-1.796-1.265-.657-2.261-.657c-1.507,0-2.766.34-3.775,1.021s-1.794,1.398-2.353,2.152v12.93h-2.17Z"/><path d="M369.92,210.323v-24.547h8.48c1.471,0,2.784.292,3.939.875s2.063,1.425,2.726,2.526c.663,1.101.994,2.423.994,3.967,0,1.484-.331,2.747-.994,3.793s-1.571,1.845-2.726,2.398-2.469.83-3.939.83h-6.128v10.158h-2.353ZM372.273,198.14h5.982c1.63,0,2.945-.41,3.948-1.231s1.505-2.076,1.505-3.766c0-1.835-.502-3.191-1.505-4.067s-2.319-1.313-3.948-1.313h-5.982v10.377Z"/><path d="M390.327,210.323v-17.745h1.988l.109,2.991c.522-.839,1.219-1.584,2.088-2.234s2.04-.976,3.511-.976h.365v2.17h-.401c-.973,0-1.796.139-2.471.419s-1.249.647-1.723,1.103-.905.946-1.295,1.468v12.802h-2.17Z"/><path d="M408.473,210.615c-1.703,0-3.143-.371-4.322-1.112s-2.073-1.796-2.681-3.164-.912-2.988-.912-4.86c0-1.908.304-3.556.912-4.942.608-1.386,1.502-2.453,2.681-3.201s2.62-1.122,4.322-1.122c1.762,0,3.249.374,4.459,1.122s2.131,1.815,2.763,3.201.948,3.034.948,4.942c0,1.872-.317,3.492-.948,4.86s-1.553,2.423-2.763,3.164-2.696,1.112-4.459,1.112ZM408.473,208.827c1.447,0,2.601-.313,3.465-.939s1.489-1.493,1.878-2.599.584-2.377.584-3.812c0-1.459-.194-2.751-.584-3.875s-1.015-2.006-1.878-2.644-2.018-.957-3.465-.957c-1.386,0-2.492.319-3.319.957s-1.425,1.52-1.796,2.644-.556,2.416-.556,3.875c0,1.434.185,2.706.556,3.812s.969,1.972,1.796,2.599,1.933.939,3.319.939Z"/><path d="M428.643,210.651c-1.58,0-2.961-.347-4.14-1.04s-2.097-1.723-2.754-3.091-.985-3.048-.985-5.043c0-2.006.328-3.696.985-5.07.657-1.374,1.575-2.41,2.754-3.109s2.56-1.049,4.14-1.049c1.313,0,2.489.212,3.529.638s1.872,1.069,2.498,1.933.969,1.958,1.03,3.283h-2.17c-.109-1.265-.584-2.252-1.422-2.964s-1.97-1.067-3.392-1.067c-1.885,0-3.307.65-4.267,1.951s-1.441,3.119-1.441,5.453c0,1.557.212,2.881.638,3.976.426,1.094,1.064,1.931,1.915,2.508s1.903.866,3.155.866c1.422,0,2.587-.356,3.492-1.067.905-.711,1.383-1.772,1.432-3.182h2.17c-.036,1.374-.376,2.51-1.021,3.41s-1.502,1.568-2.571,2.006-2.261.657-3.574.657Z"/><path d="M447.956,210.651c-1.897,0-3.435-.422-4.614-1.267s-2.043-1.963-2.59-3.356-.821-2.909-.821-4.55c0-1.776.264-3.356.793-4.742s1.356-2.48,2.48-3.283,2.581-1.204,4.368-1.204c2.298,0,4.094.709,5.389,2.125s1.942,3.456,1.942,6.119c0,.207-.007.435-.018.684s-.03.422-.055.52h-12.748c0,1.301.198,2.496.593,3.584s1.024,1.958,1.888,2.608,1.994.976,3.392.976c1.52,0,2.699-.362,3.538-1.085s1.277-1.766,1.313-3.128h2.134c-.025,1.179-.317,2.218-.875,3.119s-1.356,1.605-2.389,2.115-2.273.766-3.72.766ZM442.084,199.873h10.687c-.036-1.848-.499-3.276-1.386-4.286s-2.158-1.514-3.812-1.514c-1.678,0-2.97.495-3.875,1.486s-1.443,2.428-1.614,4.313Z"/><path d="M465.792,210.651c-1.01,0-1.945-.119-2.809-.356s-1.614-.602-2.252-1.094-1.133-1.124-1.486-1.897-.529-1.693-.529-2.763h2.17c0,1.58.468,2.696,1.404,3.346s2.14.976,3.611.976c1.265,0,2.332-.258,3.201-.775s1.304-1.365,1.304-2.544c0-.973-.356-1.696-1.067-2.17s-1.972-.924-3.784-1.35c-1.447-.353-2.633-.741-3.556-1.167s-1.602-.955-2.033-1.587-.647-1.416-.647-2.353c0-.718.146-1.365.438-1.942s.711-1.069,1.258-1.477,1.206-.718,1.979-.93,1.639-.319,2.599-.319c.937,0,1.803.119,2.599.356s1.489.595,2.079,1.076,1.049,1.085,1.377,1.815.492,1.587.492,2.571h-2.17c0-1.434-.422-2.459-1.267-3.073s-1.881-.921-3.109-.921-2.231.234-3.009.702-1.167,1.183-1.167,2.143c0,.547.152,1.003.456,1.368s.823.69,1.559.976,1.742.586,3.018.903c1.422.34,2.581.732,3.474,1.176s1.548,1.003,1.96,1.678.62,1.529.62,2.562c0,.851-.162,1.596-.483,2.234s-.782,1.167-1.377,1.587-1.304.732-2.125.939-1.73.31-2.726.31Z"/><path d="M482.826,210.651c-1.01,0-1.945-.119-2.809-.356s-1.614-.602-2.252-1.094-1.133-1.124-1.486-1.897-.529-1.693-.529-2.763h2.17c0,1.58.468,2.696,1.404,3.346s2.14.976,3.611.976c1.265,0,2.332-.258,3.201-.775s1.304-1.365,1.304-2.544c0-.973-.356-1.696-1.067-2.17s-1.972-.924-3.784-1.35c-1.447-.353-2.633-.741-3.556-1.167s-1.602-.955-2.033-1.587-.647-1.416-.647-2.353c0-.718.146-1.365.438-1.942s.711-1.069,1.258-1.477,1.206-.718,1.979-.93,1.639-.319,2.599-.319c.937,0,1.803.119,2.599.356s1.489.595,2.079,1.076,1.049,1.085,1.377,1.815.492,1.587.492,2.571h-2.17c0-1.434-.422-2.459-1.267-3.073s-1.881-.921-3.109-.921-2.231.234-3.009.702-1.167,1.183-1.167,2.143c0,.547.152,1.003.456,1.368s.823.69,1.559.976,1.742.586,3.018.903c1.422.34,2.581.732,3.474,1.176s1.548,1.003,1.96,1.678.62,1.529.62,2.562c0,.851-.162,1.596-.483,2.234s-.782,1.167-1.377,1.587-1.304.732-2.125.939-1.73.31-2.726.31Z"/><path d="M85.573.004H.04l-.04,161.224h48.89V37.402h10.557c11.81.18,21.473,2.326,23.62,19.326,3.222,23.62-11.81,29.167-33.64,30.061l23.978,17.715c34.893-1.968,58.871-14.673,59.765-49.924C134.602,10.74,105.614.004,85.573.004Z" fill="#285943" fill-rule="evenodd"/><polygon points="790.408 .004 745.674 .004 727.427 36.15 705.805 .004 646.933 .004 693.607 79.096 650.531 161.229 698.666 161.229 720.627 119.894 720.627 120.073 745.242 161.229 800 161.229 750.331 76.232 790.408 .004" fill="#285943" fill-rule="evenodd"/><path d="M522.228,48.139h-32.155s-.537,113.089-.537,113.089h-49.208l.537-113.089-22.445-.06c4.398,9.954,6.861,20.956,6.861,32.537,0,44.521-36.091,80.612-80.612,80.612s-80.612-36.091-80.612-80.612c0-2.804.143-5.575.423-8.305-8.144,16.754-25.534,20.324-25.255,20.741l47.239,68.176h-59.945l-41.513-77.481,10.557-1.61c16.461-2.147,25.23-11.988,22.367-26.482-3.222-16.821-11.273-18.073-23.263-18.253h-10.378v123.826h-48.971L135.439.004h85.533c19.941,0,48.552,10.642,47.603,53.935C279.587,22.529,309.498.004,344.669.004l181.064-.004,12.853,24.041C553.206,9.201,573.538.004,596.017.004c44.521,0,80.612,36.091,80.612,80.612s-36.091,80.612-80.612,80.612-80.612-36.091-80.612-80.612c0-11.557,2.444-22.54,6.824-32.477ZM344.635,51.596c-16.027,0-29.02,12.993-29.02,29.02s12.993,29.02,29.02,29.02,29.02-12.993,29.02-29.02-12.993-29.02-29.02-29.02ZM596.017,51.596c-16.027,0-29.02,12.993-29.02,29.02s12.993,29.02,29.02,29.02,29.02-12.993,29.02-29.02-12.993-29.02-29.02-29.02Z" fill="#285943"/></svg>