<svg xmlns="http://www.w3.org/2000/svg" id="Lag_1" version="1.1" viewBox="30.3 24.2 279.8 118.5">
  <!-- Generator: Adobe Illustrator 29.3.1, SVG Export Plug-In . SVG Version: 2.1.0 Build 151)  -->
  <defs>
    <style>
      .st0 {
        fill: #1d1d1b;
      }

      .st1 {
        fill: #80b199;
      }

      .st2 {
        fill: #3f415d;
      }

      .st3 {
        fill: #e27c61;
      }
    </style>
  </defs>
  <g>
    <rect class="st1" x="302.3" y="34.3" width="7.8" height="65.5"/>
    <rect class="st2" x="287.2" y="52.6" width="7.8" height="89.6"/>
    <rect class="st3" x="271.2" y="24.2" width="7.8" height="83.1"/>
  </g>
  <g>
    <path class="st0" d="M82.3,29.3c-4.1-2.1-9.5-3.5-16.1-4.3-1-.1-1.8.7-1.8,1.6v14.3c0,.8.6,1.5,1.3,1.6,5.5,1.2,9.9,3.3,13,6.4,5.6,5.5,8.4,13.3,8.4,23.3s-1.2,12-3.5,16.4c-2.4,4.5-5.4,7.6-9.1,9.5-3.7,1.9-9.7,2.8-17.9,2.8h-6.7c-.9,0-1.7-.7-1.7-1.7V25.9c0-.9-.7-1.7-1.7-1.7h-14.5c-.9,0-1.7.7-1.7,1.7v91.1c0,.9.7,1.7,1.7,1.7h20c12.2,0,20.8-.8,25.8-2.3,5-1.5,9.6-4.3,13.8-8.3,4.3-4,7.6-9.1,10-15.2,2.4-6.1,3.6-12.8,3.6-20.1s-2.2-19.2-6.5-26.8c-4.3-7.7-9.8-13.2-16.5-16.6Z"/>
    <g>
      <path class="st0" d="M171.3,25.3l-14.9,41.4c-.1.4-.1.8,0,1.1l7.5,20.5c.5,1.5,2.6,1.5,3.1,0l22.3-61.9c.4-1.1-.4-2.2-1.6-2.2h-14.9c-.7,0-1.3.4-1.6,1.1Z"/>
      <path class="st0" d="M106.2,26.4l32.3,91.1c.2.7.9,1.1,1.6,1.1h15c.7,0,1.3-.4,1.6-1.1h0c.1-.4.1-.8,0-1.1L123.8,25.3c-.2-.7-.9-1.1-1.6-1.1h-14.5c-1.1,0-1.9,1.1-1.6,2.2Z"/>
    </g>
    <path class="st0" d="M224.3,72.1l2.8,7.3c.4,1.1-.4,2.3-1.5,2.3h-20.4c-1.2,0-2-1.2-1.5-2.3l11.8-30.2h0s9.4-24,9.4-24l-.4-1h-17.1c-.7,0-1.3.4-1.5,1.1l-35.1,91.1c-.4,1.1.4,2.3,1.5,2.3h15.1c.7,0,1.3-.4,1.5-1l6.9-17.4c.2-.6.9-1,1.5-1h36.3c.7,0,1.3.4,1.5,1.1l6.6,17.3c.2.6.9,1.1,1.5,1.1h15.1c1.2,0,2-1.2,1.5-2.3l-24.9-64.7c-.5-1.4-2.5-1.4-3.1,0l-7.6,19.2c-.2.4-.2.8,0,1.2Z"/>
  </g>
  <g>
    <path class="st0" d="M36.4,131.4v1.2h-4.3v3.3h3.9v1.2h-3.9v3.5h4.4v1.2h-5.8v-10.5h5.7Z"/>
    <path class="st0" d="M45.3,133.1c-.7-.5-1.6-.7-2.3-.7-1,0-1.8.3-1.8,1.5,0,2.3,5.1,1.4,5.1,5.1s-.5,1.9-1.2,2.3c-.6.4-1.5.7-2.4.7s-2.4-.3-3.1-1l.7-1c.7.6,1.7.8,2.6.8s1.9-.3,1.9-1.7c0-2.5-5.1-1.5-5.1-5.1s.4-1.6,1-2c.7-.5,1.5-.8,2.4-.8s2,.2,2.8.9l-.7,1Z"/>
    <path class="st0" d="M56.8,131.4v1.3h-3.2v9.2h-1.4v-9.2h-3.2v-1.3h7.8Z"/>
    <path class="st0" d="M58.9,140.2c.5,0,.9.4.9.9s-.4.9-.9.9-.9-.4-.9-.9.4-.9.9-.9Z"/>
    <path class="st0" d="M75.3,141.9h-6.5v-.9c0-2,.8-2.8,3.1-4.4,1.1-.7,1.9-1.4,1.9-2.6s-.8-1.5-1.9-1.5-1.7.3-2.3.9l-.8-.9c.8-.8,1.9-1.2,3.2-1.2s3.2.6,3.2,2.8-.8,2.3-2.4,3.4c-1.9,1.3-2.7,1.9-2.7,3.2h5.1s0,1.2,0,1.2Z"/>
    <path class="st0" d="M84.8,141c-.5.6-1.3,1-2.4,1s-1.9-.4-2.4-1c-.8-1-1-2.5-1-4.3s.2-3.5,1-4.6c.5-.7,1.3-1,2.4-1s1.9.4,2.4,1c.8.9,1,2.5,1,4.3s-.2,3.6-1.1,4.6ZM82.5,132.4c-1.5,0-2,1.4-2,4.4s.4,4.1,1.9,4.1,2-1.4,2-4.4-.4-4.1-1.9-4.1Z"/>
    <path class="st0" d="M95.1,141c-.5.6-1.3,1-2.4,1s-1.9-.4-2.4-1c-.8-1-1-2.5-1-4.3s.2-3.5,1-4.6c.5-.7,1.3-1,2.4-1s1.9.4,2.4,1c.8.9,1,2.5,1,4.3s-.2,3.6-1.1,4.6ZM92.8,132.4c-1.5,0-2,1.4-2,4.4s.4,4.1,1.9,4.1,2-1.4,2-4.4-.4-4.1-1.9-4.1Z"/>
    <path class="st0" d="M101.3,135.9h1c1.5,0,2.4-.5,2.4-1.9s-.7-1.6-1.8-1.6-1.7.2-2.4.9l-.7-1c.8-.9,2-1.1,3.1-1.1s1.6.1,2.2.5c.6.4,1.1,1,1.1,2.1s-.6,2.2-1.8,2.5c1.3.3,2,1.2,2,2.6s-.5,2-1.2,2.4c-.7.4-1.5.6-2.3.6-1.2,0-2.3-.3-3-1.1l.8-1c.6.6,1.4.9,2.3.9s2-.4,2-1.9-.8-1.8-2.5-1.8h-1.1v-1.2Z"/>
    <path class="st0" d="M117.2,131.4v10.5h-1.4v-10.5h1.4Z"/>
    <path class="st0" d="M123.6,131.4l4.8,8.6v-8.6s1.4,0,1.4,0v10.5h-1.9l-4.8-8.6v8.6s-1.4,0-1.4,0v-10.5h1.9Z"/>
    <path class="st0" d="M147.4,140.8c-1,1.2-2.2,1.8-3.8,1.8s-2.3-.4-2.9-1.1c-1.1-1.1-1.4-2.9-1.4-4.8s.3-3.8,1.3-4.9c.7-.7,1.7-1.2,3.2-1.2s2.5.3,3.4,1.3l-.9,1c-.7-.7-1.6-1-2.5-1s-1.8.4-2.2.9c-.4.6-.7,1.7-.7,3.8s.3,3.3.8,3.9c.4.4.9.7,1.9.7s2.1-.5,2.9-1.4l1,.9Z"/>
    <path class="st0" d="M159,141.4c-.7.8-1.8,1.3-3.5,1.3s-2.7-.5-3.5-1.3c-.9-1-1.2-2.6-1.2-4.6s.3-3.7,1.3-4.9c.7-.8,1.8-1.3,3.5-1.3s2.7.5,3.5,1.3c.9,1,1.2,2.6,1.2,4.6s-.3,3.7-1.3,4.8ZM157.9,132.7c-.4-.5-1.1-.8-2.2-.8s-1.8.3-2.3.8c-.6.7-.9,1.9-.9,4s.2,3.2.8,3.9c.4.5,1.1.7,2.2.7s1.8-.3,2.3-.8c.6-.7.9-1.8.9-4s-.2-3.2-.8-3.9Z"/>
    <path class="st0" d="M168.9,130.8c.9,0,1.8.2,2.5.6.7.5,1.1,1.3,1.1,2.9s-.4,2.5-1.2,3c-.6.5-1.5.7-2.5.7h-2.3v4.3h-1.6v-11.6h3.9ZM166.5,136.7h2.4c.7,0,1.2-.2,1.5-.4s.5-.9.5-1.8-.2-1.5-.5-1.9c-.3-.3-.7-.4-1.5-.4h-2.3v4.5Z"/>
    <path class="st0" d="M183.1,130.8v1.4h-4.8v3.6h4.4v1.4h-4.4v3.9h4.8v1.4h-6.4v-11.6h6.3Z"/>
    <path class="st0" d="M189.8,130.8l5.4,9.5v-9.5s1.5,0,1.5,0v11.6h-2.1l-5.4-9.5v9.5s-1.5,0-1.5,0v-11.6h2.1Z"/>
    <path class="st0" d="M203.3,130.8v5h5.2v-5h1.6v11.6h-1.6v-5.2h-5.2v5.2h-1.6v-11.6h1.6Z"/>
    <path class="st0" d="M221.9,142.4l-.9-2.9h-4.5l-1,2.9h-1.7l4-11.6h2l3.9,11.6h-1.7ZM218.7,132.5l-1.9,5.8h3.8l-1.9-5.8Z"/>
    <path class="st0" d="M235.3,136.2v5.7c-.9.4-2.2.6-3.7.6s-2.9-.4-3.7-1.2c-1.1-1.1-1.3-2.7-1.3-4.6s.3-3.8,1.3-4.9c.7-.8,1.9-1.2,3.6-1.2s2.7.4,3.6,1.2l-.9,1.1c-.7-.7-1.7-1-2.9-1s-1.9.3-2.3.8c-.5.6-.8,1.5-.8,3.8s.3,3.4.9,3.9c.5.4,1.1.7,2.4.7s1.7-.1,2.3-.3v-3.4h-2.5v-1.4h4Z"/>
    <path class="st0" d="M246.5,130.8v1.4h-4.8v3.6h4.4v1.4h-4.4v3.9h4.8v1.4h-6.4v-11.6h6.3Z"/>
    <path class="st0" d="M253.2,130.8l5.4,9.5v-9.5s1.5,0,1.5,0v11.6h-2.1l-5.4-9.5v9.5s-1.5,0-1.5,0v-11.6h2.1Z"/>
  </g>
</svg>